<svg width="48" height="48" viewBox="0 0 700 700" fill="none" xmlns="http://www.w3.org/2000/svg">
<path fillRule="evenodd" clipRule="evenodd" d="M71.3565 536.015C34.5462 480.924 14.8988 416.156 14.8988 349.899H102.2C102.2 486.755 213.144 597.699 350 597.699C486.856 597.699 597.8 486.755 597.8 349.899C597.8 213.043 486.856 102.099 350 102.099C349.966 102.099 349.933 102.099 349.899 102.099V14.8988C416.156 14.8988 480.924 34.5462 536.015 71.3565C591.105 108.167 634.043 160.487 659.398 221.7C684.754 282.913 691.388 350.27 678.462 415.254C665.536 480.238 633.63 539.929 586.78 586.78C539.929 633.63 480.238 665.536 415.254 678.462C350.27 691.388 282.913 684.754 221.7 659.398C160.487 634.043 108.167 591.105 71.3565 536.015Z" fill="white"/>
<rect x="306.451" y="23.1112" width="87.0988" height="653.575" fill="white"/>
<rect x="133.852" y="101.998" width="87.0988" height="216.047" transform="rotate(-90 133.852 101.998)" fill="white"/>
</svg>
